<?xml version="1.0" encoding="UTF-8"?>
<svg version="1.1" xmlns="http://www.w3.org/2000/svg" width="679" height="681">
<path d="M0 0 C224.07 0 448.14 0 679 0 C679 224.73 679 449.46 679 681 C454.93 681 230.86 681 0 681 C0 456.27 0 231.54 0 0 Z " fill="#FEFEFE" transform="translate(0,0)"/>
<path d="M0 0 C0.80128326 0.00093658 1.60256653 0.00187317 2.4281311 0.00283813 C26.95390416 0.06480351 50.64368825 3.32398067 74.8125 7.1875 C74.20692716 16.06933034 73.31191262 24.87728235 72.18359375 33.70703125 C72.02963638 34.93161545 71.87567902 36.15619965 71.71705627 37.41789246 C71.23095962 41.27897033 70.74055715 45.13948658 70.25 49 C69.9166786 51.63859166 69.5843464 54.27730675 69.25195312 56.91601562 C68.44207988 63.34026128 67.62868332 69.76405314 66.8125 76.1875 C62.23505636 77.25740911 58.66676347 76.79977829 54.1328125 75.7890625 C53.40182343 75.63464691 52.67083435 75.48023132 51.91769409 75.32113647 C49.58888647 74.82745373 47.26321314 74.32054179 44.9375 73.8125 C42.61844435 73.31421446 40.29882008 72.81872922 37.97872925 72.32528687 C36.53881321 72.01815094 35.09957357 71.70781974 33.66116333 71.39370728 C25.28969224 69.58716979 17.28592046 68.95292989 8.75 68.875 C7.68716797 68.84599609 6.62433594 68.81699219 5.52929688 68.78710938 C-0.54767863 68.73776479 -4.49128905 68.89704167 -9.1875 73.1875 C-12.10133393 76.21245471 -12.64079345 78.39394035 -12.6875 82.5625 C-12.7184375 83.47773438 -12.749375 84.39296875 -12.78125 85.3359375 C-11.83898935 89.86126827 -9.18618198 92.68848852 -5.5859375 95.38867188 C-3.73793989 96.58234454 -1.8569956 97.67507326 0.0625 98.75 C0.7841333 99.16564209 1.5057666 99.58128418 2.24926758 100.00952148 C8.89657627 103.78616584 15.7005858 107.25761286 22.5 110.75 C35.8178173 117.60249026 48.10767735 124.52017235 58.8125 135.1875 C59.49699219 135.84878906 60.18148437 136.51007813 60.88671875 137.19140625 C73.07525354 149.81096977 80.86194825 167.37123685 81.05078125 184.8671875 C81.058853 185.59761261 81.06692474 186.32803772 81.07524109 187.08059692 C81.08901732 188.62532225 81.09976811 190.17007719 81.10766602 191.71484375 C81.11909051 193.262138 81.13938784 194.8093959 81.16918945 196.35644531 C81.62679288 220.19272637 74.47672513 241.93106578 57.78125 259.30078125 C49.17036177 267.25879476 38.98588753 272.76755329 27.8125 276.1875 C26.53971191 276.58026123 26.53971191 276.58026123 25.24121094 276.98095703 C15.7141175 279.57074218 6.43034098 279.64546264 -3.38623047 279.57861328 C-6.15513623 279.56268616 -8.92254769 279.578452 -11.69140625 279.59765625 C-28.34689467 279.61799601 -44.61854605 277.62150883 -60.8125 273.6875 C-62.17894653 273.36604004 -62.17894653 273.36604004 -63.57299805 273.03808594 C-81.62067246 268.75432754 -81.62067246 268.75432754 -83.1875 267.1875 C-83.58291042 261.34521139 -83.06589719 255.45071894 -82.56640625 249.62890625 C-82.50218979 248.8408812 -82.43797333 248.05285614 -82.37181091 247.24095154 C-82.16797046 244.74367105 -81.95942307 242.24681802 -81.75 239.75 C-80.7070177 227.23545258 -79.81976026 214.72999815 -79.1875 202.1875 C-72.45799235 203.433136 -65.84347096 204.99531643 -59.21655273 206.70092773 C-36.88362693 212.45547591 -36.88362693 212.45547591 -14 214.625 C-13.20907959 214.64747803 -12.41815918 214.66995605 -11.60327148 214.69311523 C-6.34633117 214.67107711 -3.35162302 213.66077156 0.8125 210.1875 C4.12844869 205.43464021 4.67731614 200.81389206 3.8125 195.1875 C-1.24899753 183.91416459 -15.33710897 178.0732898 -25.68310547 172.53027344 C-52.20984623 158.30751323 -74.34670282 145.22807583 -86.1875 116.1875 C-86.60515625 115.19556641 -86.60515625 115.19556641 -87.03125 114.18359375 C-94.64778267 94.11403016 -92.67640681 68.30934432 -84.875 48.625 C-84.01574927 46.79487383 -83.1197694 44.98153104 -82.1875 43.1875 C-81.69636719 42.20910156 -81.20523438 41.23070312 -80.69921875 40.22265625 C-70.74047039 21.75500118 -54.08904157 8.92852665 -34.0625 2.875 C-22.92471064 -0.29005525 -11.47954286 -0.01732839 0 0 Z " fill="#0A192F" transform="translate(311.1875,210.8125)"/>
<path d="M0 0 C3.99464445 1.61076347 6.70825624 4.40568558 9.70239258 7.39599609 C10.2605365 7.9458165 10.81868042 8.4956369 11.39373779 9.06211853 C13.23280111 10.87712859 15.06415396 12.69967071 16.89453125 14.5234375 C18.16908733 15.78902784 19.44372119 17.05453986 20.71842957 18.31997681 C23.3859229 20.97099324 26.04900214 23.62636088 28.7097168 26.28417969 C32.12576244 29.69482503 35.55769156 33.08899983 38.99374866 36.47946739 C41.62977029 39.08581288 44.25453266 41.70327414 46.87625694 44.32399368 C48.13731492 45.58083509 49.40251019 46.83353909 50.6718235 48.08204269 C52.44140199 49.82488755 54.19462363 51.58269959 55.94458008 53.34521484 C56.47488327 53.86068375 57.00518646 54.37615265 57.55155945 54.90724182 C60.94917643 58.37507367 60.94917643 58.37507367 61.16156006 60.98654175 C59.39012867 64.05715624 56.9815474 66.40844357 54.47045898 68.87011719 C53.60704895 69.73418434 53.60704895 69.73418434 52.72619629 70.6157074 C50.82318708 72.51662777 48.90977485 74.40670358 46.99609375 76.296875 C45.67407568 77.61329748 44.35271872 78.93038417 43.03199768 80.24810791 C39.55497311 83.71368093 36.06903342 87.17015039 32.58117676 90.62481689 C29.02331141 94.15198828 25.4739288 97.68767287 21.92382812 101.22265625 C14.9575066 108.15680811 7.98173961 115.08137469 1 122 C-5.94103433 116.31978209 -12.17673906 109.94998244 -18.49609375 103.6015625 C-19.69656287 102.39922532 -20.89725518 101.19711095 -22.09815979 99.99520874 C-25.23866548 96.85090837 -28.37615481 93.70361521 -31.51300049 90.55566406 C-34.72232618 87.33605827 -37.93453005 84.11932679 -41.14648438 80.90234375 C-47.43379102 74.60435365 -53.71791106 68.30319435 -60 62 C-58.38376737 57.94397286 -55.49847324 55.23044472 -52.44873047 52.22167969 C-51.88273132 51.65538849 -51.31673218 51.08909729 -50.73358154 50.50564575 C-48.8661528 48.63960762 -46.99174538 46.78074904 -45.1171875 44.921875 C-43.81923589 43.62765446 -42.52172584 42.33299095 -41.22463989 41.03790283 C-37.81285164 37.63374354 -34.39509948 34.23563366 -30.97607422 30.83874512 C-27.4869408 27.37008593 -24.00347613 23.89574417 -20.51953125 20.421875 C-13.68522632 13.60900698 -6.84460797 6.8025158 0 0 Z " fill="#0B1A30" transform="translate(459,290)"/>
<path d="M0 0 C4.05602714 1.61623263 6.76955528 4.50152676 9.77832031 7.55126953 C10.34461151 8.11726868 10.91090271 8.68326782 11.49435425 9.26641846 C13.36039238 11.1338472 15.21925096 13.00825462 17.078125 14.8828125 C18.37234554 16.18076411 19.66700905 17.47827416 20.96209717 18.77536011 C24.36625646 22.18714836 27.76436634 25.60490052 31.16125488 29.02392578 C34.62991407 32.5130592 38.10425583 35.99652387 41.578125 39.48046875 C48.39099302 46.31477368 55.1974842 53.15539203 62 60 C60.38376737 64.05602714 57.49847324 66.76955528 54.44873047 69.77832031 C53.88273132 70.34461151 53.31673218 70.91090271 52.73358154 71.49435425 C50.8661528 73.36039238 48.99174538 75.21925096 47.1171875 77.078125 C45.81923589 78.37234554 44.52172584 79.66700905 43.22463989 80.96209717 C39.81285164 84.36625646 36.39509948 87.76436634 32.97607422 91.16125488 C29.4869408 94.62991407 26.00347613 98.10425583 22.51953125 101.578125 C15.68522632 108.39099302 8.84460797 115.1974842 2 122 C-4.90459591 116.32269477 -11.19011032 110.02971147 -17.53125 103.7421875 C-18.12183701 103.15692417 -18.71242401 102.57166084 -19.32090759 101.96866226 C-22.43522281 98.88090056 -25.54597503 95.78959494 -28.65429688 92.69580078 C-31.22555198 90.13797175 -33.80391712 87.58764243 -36.38867188 85.04345703 C-39.52004596 81.96120812 -42.63914673 78.8670433 -45.74961853 75.76370621 C-46.93518423 74.58486992 -48.12501374 73.41030598 -49.31910706 72.24010849 C-50.98047654 70.61015794 -52.62558613 68.9653549 -54.26757812 67.31591797 C-54.76511597 66.83478546 -55.26265381 66.35365295 -55.77526855 65.85794067 C-58.95762485 62.61581027 -58.95762485 62.61581027 -59.13563538 60.02890015 C-57.42172297 56.9668635 -55.04653776 54.6562258 -52.56225586 52.22167969 C-51.99640274 51.65538849 -51.43054962 51.08909729 -50.84754944 50.50564575 C-48.97700443 48.63718936 -47.09606074 46.77958101 -45.21484375 44.921875 C-43.91524591 43.62787283 -42.6163092 42.33320636 -41.31800842 41.03790283 C-37.90016715 37.63151249 -34.47341237 34.2342274 -31.04473877 30.83874512 C-27.54719606 27.37189771 -24.05813702 23.89653563 -20.56835938 20.421875 C-13.72052726 13.60621145 -6.86325073 6.80013457 0 0 Z " fill="#0B1A30" transform="translate(152,290)"/>
<path d="M0 0 C28.71 0 57.42 0 87 0 C87 10.23 87 20.46 87 31 C84.69 33.31 82.38 35.62 80 38 C68.89790132 52.90914018 63.83191778 68.68082219 62 87 C41.54 87 21.08 87 0 87 C0 58.29 0 29.58 0 0 Z " fill="#0B1A30" transform="translate(155,199)"/>
<path d="M0 0 C1.62215675 0.00333092 1.62215675 0.00333092 3.27708435 0.00672913 C4.5154303 0.00684998 5.75377625 0.00697083 7.02964783 0.00709534 C8.99762329 0.01476929 8.99762329 0.01476929 11.00535583 0.02259827 C12.8025708 0.02410889 12.8025708 0.02410889 14.63609314 0.02565002 C19.13288829 0.03090147 23.62966985 0.04486257 28.12644958 0.05775452 C38.17082458 0.07837952 48.21519958 0.09900452 58.56394958 0.12025452 C58.56394958 28.83025452 58.56394958 57.54025452 58.56394958 87.12025452 C29.85394958 87.12025452 1.14394958 87.12025452 -28.43605042 87.12025452 C-28.43605042 58.12025452 -28.43605042 58.12025452 -19.43605042 48.12025452 C-17.23722482 44.77973101 -15.28137892 41.63285352 -13.43605042 38.12025452 C-12.99519104 37.29138733 -12.55433167 36.46252014 -12.10011292 35.60853577 C-7.10658863 25.48530016 -4.26970314 14.10191114 -3.61183167 2.84291077 C-3.32892477 0.07042317 -2.79289211 0.13786984 0 0 Z " fill="#0B1A30" transform="translate(399.43605041503906,414.87974548339844)"/>
<path d="M0 0 C28.71 0 57.42 0 87 0 C87 28.71 87 57.42 87 87 C61.92 87 36.84 87 11 87 C14.52352113 55.28830986 14.52352113 55.28830986 16.45581055 41.01855469 C17.54128519 32.96178919 18.27583299 25.13337421 18 17 C16.12577848 16.51779737 14.25058246 16.03938167 12.375 15.5625 C11.33085937 15.29566406 10.28671875 15.02882812 9.2109375 14.75390625 C6.16820335 14.039493 3.08295325 13.51382554 0 13 C0 8.71 0 4.42 0 0 Z " fill="#0B1A30" transform="translate(371,199)"/>
<path d="M0 0 C24.09 0 48.18 0 73 0 C72.525625 7.755 72.05125 15.51 71.5625 23.5 C71.41498291 25.91248047 71.26746582 28.32496094 71.11547852 30.81054688 C70.41820217 42.20753193 69.71704381 53.60423973 69 65 C73.09396848 66.77776295 77.07549994 68.42113998 81.375 69.625 C85.89495798 70.89495798 85.89495798 70.89495798 87 72 C87 76.95 87 81.9 87 87 C58.29 87 29.58 87 0 87 C0 58.29 0 29.58 0 0 Z " fill="#0C1B30" transform="translate(155,415)"/>
<path d="M0 0 C3.05328848 1.70221332 5.37985331 4.04818042 7.82408142 6.50593567 C8.39197891 7.06536362 8.9598764 7.62479156 9.54498291 8.20117188 C11.4189389 10.05173665 13.28149341 11.91329051 15.14317322 13.77619934 C16.43993113 15.06585873 17.73698825 16.35521732 19.03433228 17.64428711 C21.75039377 20.34690015 24.46043947 23.05538325 27.16685486 25.76765442 C30.64173182 29.24843809 34.13453537 32.71059976 37.6324892 36.16817188 C40.31504885 38.82493315 42.98610627 41.49302722 45.6539669 44.16454124 C46.93748476 45.44636155 48.22500901 46.72418278 49.51651955 47.9979496 C51.31735063 49.77673963 53.10170527 51.57057221 54.88267517 53.36921692 C55.69215607 54.15880295 55.69215607 54.15880295 56.51799011 54.96434021 C57.97515869 56.45547485 57.97515869 56.45547485 60.02989197 59.13166809 C59.82582914 63.75867854 56.69409446 67.14426475 53.43785095 70.20246887 C48.75776814 72.85180009 45.3458609 72.38356148 40.10801697 71.91682434 C38.12750871 71.78409617 36.14678463 71.65455678 34.1658783 71.52790833 C33.14982513 71.45820831 32.13377197 71.3885083 31.08692932 71.31669617 C23.35831587 70.84891959 15.61109436 70.82979864 7.87046814 70.78157043 C5.93317196 70.76495247 3.99593852 70.73758641 2.0589447 70.69953918 C-14.55802035 70.3784519 -29.21508379 72.87999334 -44.97010803 78.13166809 C-50.58010803 72.52166809 -56.19010803 66.91166809 -61.97010803 61.13166809 C-58.19097162 56.72267561 -54.4667025 52.47174468 -50.395401 48.36408997 C-49.6136853 47.57010803 -49.6136853 47.57010803 -48.81617737 46.76008606 C-47.11783858 45.03724704 -45.41565003 43.31829764 -43.71229553 41.60041809 C-43.1270322 41.00983109 -42.54176888 40.41924408 -41.93877029 39.8107605 C-38.85100859 36.69644528 -35.75970297 33.58569306 -32.66590881 30.47737122 C-30.10807978 27.90611612 -27.55775046 25.32775097 -25.01356506 22.74299622 C-21.93131616 19.61162213 -18.83715133 16.49252136 -15.73381424 13.38204956 C-14.55497795 12.19648386 -13.38041401 11.00665435 -12.21021652 9.81256104 C-10.58026597 8.15119155 -8.93546293 6.50608197 -7.286026 4.86408997 C-6.80489349 4.36655212 -6.32376099 3.86901428 -5.82804871 3.35639954 C-2.58458594 0.17273545 -2.58458594 0.17273545 0 0 Z " fill="#0C1B31" transform="translate(306.97010803222656,136.8683319091797)"/>
<path d="M0 0 C2.18550918 1.30339835 3.75111989 2.68397031 5.53149414 4.49731445 C6.15024414 5.12250977 6.76899414 5.74770508 7.40649414 6.3918457 C8.04071289 7.04282227 8.67493164 7.69379883 9.32836914 8.36450195 C10.30290039 9.35256836 10.30290039 9.35256836 11.29711914 10.3605957 C12.89548642 11.98246838 14.48898811 13.60883005 16.07836914 15.23950195 C14.46213651 19.29552909 11.57684238 22.00905724 8.52709961 25.01782227 C7.96110046 25.58411346 7.39510132 26.15040466 6.81195068 26.7338562 C4.94452194 28.59989434 3.07011452 30.45875292 1.19555664 32.31762695 C-0.10239497 33.61184749 -1.39990502 34.90651101 -2.69699097 36.20159912 C-6.10877922 39.60575841 -9.52653138 43.00386829 -12.94555664 46.40075684 C-16.43469005 49.86941602 -19.91815473 53.34375778 -23.40209961 56.81762695 C-30.23640454 63.63049497 -37.07702289 70.43698616 -43.92163086 77.23950195 C-50.82622677 71.56219672 -57.11174118 65.26921342 -63.45288086 58.98168945 C-64.04346786 58.39642612 -64.63405487 57.8111628 -65.24253845 57.20816422 C-68.35685367 54.12040252 -71.46760589 51.02909689 -74.57592773 47.93530273 C-77.14718283 45.3774737 -79.72554798 42.82714438 -82.31030273 40.28295898 C-85.44167682 37.20071008 -88.56077759 34.10654525 -91.67124939 31.00320816 C-92.85681509 29.82437188 -94.0466446 28.64980793 -95.24073792 27.47961044 C-96.9021074 25.84965989 -98.54721698 24.20485685 -100.18920898 22.55541992 C-100.68674683 22.07428741 -101.18428467 21.59315491 -101.69689941 21.09744263 C-103.03894043 19.73019409 -103.03894043 19.73019409 -104.92163086 17.23950195 C-104.7441118 13.69774347 -103.1135864 12.0742003 -100.60913086 9.67700195 C-100.01487305 9.09821289 -99.42061523 8.51942383 -98.80834961 7.9230957 C-97.87442383 7.0897168 -97.87442383 7.0897168 -96.92163086 6.23950195 C-96.31577148 5.66973633 -95.70991211 5.0999707 -95.08569336 4.51293945 C-92.05702207 2.73072494 -90.09106849 3.09182109 -86.60913086 3.42700195 C-85.96379395 3.48235107 -85.31845703 3.5377002 -84.65356445 3.59472656 C-82.40745244 3.79107232 -80.16488185 4.01283679 -77.92163086 4.23950195 C-40.36524109 8.39112067 -40.36524109 8.39112067 -4.12084961 -0.1862793 C-1.92163086 -0.76049805 -1.92163086 -0.76049805 0 0 Z " fill="#0B1A30" transform="translate(350.921630859375,487.760498046875)"/>
<path d="M0 0 C4.73858582 1.30681682 5.7455621 3.01799119 8.54333496 6.97718811 C16.99718386 15.20499827 27.27433931 20.83612212 37.42785645 26.6778717 C39.57222785 27.99493398 41.55492809 29.43674223 43.54333496 30.97718811 C39.74089527 35.17790933 35.88663362 39.32094387 31.97717285 43.42225647 C30.65794826 44.82150252 29.35348644 46.23483217 28.06506348 47.66249084 C16.73493631 60.18387993 16.73493631 60.18387993 10.23132324 60.65638733 C6.56315923 60.56292534 3.09203231 59.91838224 -0.45666504 58.97718811 C-1.11666504 59.96718811 -1.77666504 60.95718811 -2.45666504 61.97718811 C-5.35464478 62.33795166 -5.35464478 62.33795166 -9.10949707 62.31776428 C-9.79253906 62.31820236 -10.47558105 62.31864044 -11.17932129 62.3190918 C-13.44132892 62.31699855 -15.7025991 62.29364354 -17.96447754 62.27015686 C-19.53103226 62.26456278 -21.09759222 62.2602918 -22.66415405 62.2572937 C-26.79069466 62.24583003 -30.91691933 62.21635006 -35.04333496 62.18318176 C-39.25268276 62.15251348 -43.46208152 62.13879533 -47.67150879 62.12367249 C-55.93337265 62.09148155 -64.19497956 62.04026715 -72.45666504 61.97718811 C-72.45666504 61.31718811 -72.45666504 60.65718811 -72.45666504 59.97718811 C-71.11425781 58.67456055 -71.11425781 58.67456055 -69.18127441 57.10585022 C-63.9091594 52.61942478 -59.22398592 47.6234629 -54.46968079 42.60688972 C-51.10138919 39.06768615 -47.69145112 35.56845471 -44.28873444 32.06239414 C-41.31846822 28.99732693 -38.36448853 25.91926605 -35.44104004 22.8094635 C-32.58835029 19.77662605 -29.69712389 16.78565422 -26.7766571 13.81808281 C-25.68102444 12.6906782 -24.59958691 11.54927473 -23.53401184 10.39341927 C-16.27706027 2.54342709 -10.74918044 -0.25228695 0 0 Z " fill="#0C1B31" transform="translate(230.4566650390625,351.02281188964844)"/>
<path d="M0 0 C24.42 0 48.84 0 74 0 C65.6044741 9.79478022 56.70688708 19.06853387 47.70880508 28.3059454 C44.67043522 31.42703226 41.65171817 34.5629216 38.67236328 37.74047852 C35.76831211 40.83662518 32.82105392 43.88510334 29.8398056 46.90692329 C28.72196865 48.05517998 27.61974602 49.21888303 26.53513336 50.39857292 C20.94144878 56.46028826 16.43507204 60.52730751 7.91320419 60.98832798 C-1.64500561 61.01223062 -1.64500561 61.01223062 -5.90423584 57.83042908 C-8 55.4375 -8 55.4375 -10.0234375 52.65625 C-16.67949937 43.71134472 -30.98784201 36.75451724 -41 32 C-38.50068048 25.88142206 -32.98257287 21.21823908 -28.45483398 16.53491211 C-27.28146584 15.30837851 -26.12264637 14.06775135 -24.97924805 12.81323242 C-15.44937549 2.37038405 -15.44937549 2.37038405 -9.24462891 1.43212891 C-6.01883349 1.67844965 -3.10994789 2.12489531 0 3 C0 2.01 0 1.02 0 0 Z " fill="#0B1A30" transform="translate(381,289)"/>
<path d="M0 0 C5.30629408 -0.9180918 10.90328567 -1.70233088 15.78153992 0.97935104 C20.32786312 4.34796045 24.12305529 8.54200837 27.984375 12.65234375 C29.25677017 13.95343853 30.53240423 15.25137297 31.81109619 16.54627991 C35.14976472 19.94373453 38.44464676 23.3806299 41.73132324 26.82830811 C45.09328761 30.34101908 48.49277758 33.81696747 51.890625 37.29492188 C55.70295991 41.19910539 59.51128188 45.10642893 63.28948975 49.04368591 C64.14802048 49.93659836 64.14802048 49.93659836 65.02389526 50.84754944 C66.09350825 51.96113094 67.160979 53.07677552 68.22592163 54.19482422 C70.8350551 56.95629025 70.8350551 56.95629025 74 59 C74 59.66 74 60.32 74 61 C54.86 61 35.72 61 16 61 C15.67 53.74 15.34 46.48 15 39 C12.8007053 26.50800608 8.99762682 16.99770175 3 6 C1.9950929 4.00246109 0.99430117 2.00283928 0 0 Z " fill="#0D1C31" transform="translate(381,352)"/>
<path d="M0 0 C19.14 0 38.28 0 58 0 C58.33 7.26 58.66 14.52 59 22 C61.59256015 32.84781748 64.55087989 42.35079636 69.625 52.25 C70.95646514 54.8483744 72.07464055 57.22392164 73 60 C67.67061052 60.94175264 62.08979444 61.70591941 57.19550323 59.0037117 C52.56090834 55.56982244 48.67586261 51.30763852 44.7265625 47.12890625 C43.42679916 45.80553251 42.12395788 44.48517544 40.81820679 43.16770935 C37.40945958 39.71145097 34.0452647 36.21482968 30.6885376 32.70812988 C27.24937057 29.13214485 23.76678436 25.59897068 20.2890625 22.06054688 C15.23578561 16.90427088 10.19551552 11.73593581 5.19384766 6.52954102 C4.66414871 5.98144272 4.13444977 5.43334442 3.58869934 4.86863708 C0 1.11710655 0 1.11710655 0 0 Z " fill="#0C1B31" transform="translate(158,289)"/>
<path d="M0 0 C6.34020524 2.47853619 12.21037058 5.68307737 18.13476562 9.0078125 C20.18641178 10.13566409 20.18641178 10.13566409 23.203125 11.34375 C26.48334891 12.95574575 28.02189652 13.8896028 30 17 C31.19677929 23.91982085 30.60786181 31.041385 30 38 C12.79051947 43.73649351 -11.50372574 35.36878744 -28 30 C-26.36221955 25.80374091 -23.26676818 23.01323215 -20.1171875 19.921875 C-19.54292023 19.35043762 -18.96865295 18.77900024 -18.37698364 18.19024658 C-16.5476419 16.37207055 -14.71145807 14.56098508 -12.875 12.75 C-11.63105226 11.51608671 -10.3875573 10.28171678 -9.14453125 9.046875 C-6.10157633 6.02593257 -3.05246746 3.01132908 0 0 Z " fill="#0C1B31" transform="translate(276,383)"/>
<path d="M0 0 C0.77118164 0.13487823 1.54236328 0.26975647 2.33691406 0.40872192 C4.55107611 0.80024412 6.76218881 1.20536234 8.97265625 1.6171875 C10.2656665 1.85808105 11.55867676 2.09897461 12.89086914 2.34716797 C15.9375 3.125 15.9375 3.125 17.9375 5.125 C14.20305345 9.00765396 10.44939565 12.8702595 6.67651367 16.71557617 C5.39563677 18.02664483 4.12019405 19.34304535 2.8503418 20.66479492 C1.02491168 22.56292862 -0.81914878 24.44108272 -2.66796875 26.31640625 C-3.23275436 26.91215958 -3.79753998 27.5079129 -4.37944031 28.12171936 C-8.37159393 32.1172222 -8.37159393 32.1172222 -11.62158203 32.15380859 C-14.31753399 31.01750718 -16.91925924 29.83179443 -19.51171875 28.47265625 C-21.03055664 27.67891602 -21.03055664 27.67891602 -22.58007812 26.86914062 C-23.62615234 26.31419922 -24.67222656 25.75925781 -25.75 25.1875 C-26.80767578 24.63642578 -27.86535156 24.08535156 -28.95507812 23.51757812 C-36.79029439 19.39720561 -36.79029439 19.39720561 -39.0625 17.125 C-39.28955078 15.15380859 -39.28955078 15.15380859 -39.2578125 12.7734375 C-39.25136719 11.92265625 -39.24492187 11.071875 -39.23828125 10.1953125 C-39.22152344 9.30585938 -39.20476562 8.41640625 -39.1875 7.5 C-39.17847656 6.6028125 -39.16945313 5.705625 -39.16015625 4.78125 C-39.1365497 2.56223414 -39.1036231 0.34374923 -39.0625 -1.875 C-28.53488997 -7.13880501 -11.06816568 -1.96527105 0 0 Z " fill="#0E1D32" transform="translate(347.0625,285.875)"/>
<path d="M0 0 C7.875 6.75 7.875 6.75 10.9375 9.875 C11.52402344 10.47054687 12.11054688 11.06609375 12.71484375 11.6796875 C13.13894531 12.11539063 13.56304687 12.55109375 14 13 C10.11556805 17.30867025 4.87565145 19.95988792 0 23 C0 15.41 0 7.82 0 0 Z " fill="#0B1A30" transform="translate(245,203)"/>
<path d="M0 0 C0 7.26 0 14.52 0 22 C-7.875 15.25 -7.875 15.25 -10.9375 12.125 C-11.52402344 11.52945312 -12.11054688 10.93390625 -12.71484375 10.3203125 C-13.13894531 9.88460938 -13.56304687 9.44890625 -14 9 C-11.69806101 6.53522288 -9.24011346 4.68244803 -6.4375 2.8125 C-5.65246094 2.28269531 -4.86742187 1.75289063 -4.05859375 1.20703125 C-2 0 -2 0 0 0 Z " fill="#0F1E33" transform="translate(368,477)"/>
<path d="M0 0 C2.97 0.33 5.94 0.66 9 1 C6.59285042 5.81429916 4.13037629 7.6345082 0 11 C0 7.37 0 3.74 0 0 Z " fill="#122136" transform="translate(245,488)"/>
<path d="M0 0 C0.33 0 0.66 0 1 0 C1 4.95 1 9.9 1 15 C-0.32 14.01 -1.64 13.02 -3 12 C-3.64372556 7.03411712 -3.02797727 3.99693 0 0 Z " fill="#2E3B4D" transform="translate(305,286)"/>
<path d="M0 0 C0.99 0.495 0.99 0.495 2 1 C2.92015848 3.76047543 3.19267245 5.63362269 3.25 8.5 C3.27578125 9.2734375 3.3015625 10.046875 3.328125 10.84375 C3 13 3 13 0 16 C0 10.72 0 5.44 0 0 Z " fill="#384456" transform="translate(308,403)"/>
<path d="M0 0 C0.33 0 0.66 0 1 0 C1 2.64 1 5.28 1 8 C-1.31 7.67 -3.62 7.34 -6 7 C-5.02433888 5.83040013 -4.044375 4.66438823 -3.0625 3.5 C-2.51722656 2.8503125 -1.97195313 2.200625 -1.41015625 1.53125 C-0.71212891 0.77328125 -0.71212891 0.77328125 0 0 Z " fill="#132136" transform="translate(367,203)"/>
</svg>
